<svg width="153" height="60" viewBox="0 0 153 60" fill="none" xmlns="http://www.w3.org/2000/svg">
<path d="M20 40L30 17.5L40 40M20 30H30" stroke="url(#paint0_linear_456_309)" stroke-width="2.75" stroke-miterlimit="10" stroke-linecap="round" stroke-linejoin="round"/>
<path d="M30 55C43.8075 55 55 43.8075 55 30C55 16.1925 43.8075 5 30 5C16.1925 5 5 16.1925 5 30C5 43.8075 16.1925 55 30 55Z" stroke="url(#paint1_linear_456_309)" stroke-width="2.75" stroke-miterlimit="10"/>
<path d="M67.392 39H64.5966L70.8778 21.5455H73.9205L80.2017 39H77.4062L72.4716 24.7159H72.3352L67.392 39ZM67.8608 32.1648H76.929V34.3807H67.8608V32.1648ZM85.0661 21.5455V39H82.5178V21.5455H85.0661ZM90.5057 25.9091L93.3949 31.0057L96.3097 25.9091H99.0966L95.0142 32.4545L99.1307 39H96.3438L93.3949 34.108L90.4545 39H87.6591L91.733 32.4545L87.7102 25.9091H90.5057ZM105.499 39.2898C104.67 39.2898 103.92 39.1364 103.249 38.8295C102.579 38.517 102.048 38.0653 101.656 37.4744C101.269 36.8835 101.076 36.1591 101.076 35.3011C101.076 34.5625 101.218 33.9545 101.502 33.4773C101.786 33 102.17 32.6222 102.653 32.3438C103.136 32.0653 103.675 31.8551 104.272 31.7131C104.869 31.571 105.477 31.4631 106.096 31.3892C106.88 31.2983 107.516 31.2244 108.005 31.1676C108.494 31.1051 108.849 31.0057 109.07 30.8693C109.292 30.733 109.403 30.5114 109.403 30.2045V30.1449C109.403 29.4006 109.192 28.8239 108.772 28.4148C108.357 28.0057 107.738 27.8011 106.914 27.8011C106.056 27.8011 105.38 27.9915 104.886 28.3722C104.397 28.7472 104.059 29.1648 103.871 29.625L101.477 29.0795C101.761 28.2841 102.175 27.642 102.721 27.1534C103.272 26.6591 103.906 26.3011 104.621 26.0795C105.337 25.8523 106.09 25.7386 106.88 25.7386C107.403 25.7386 107.957 25.8011 108.542 25.9261C109.133 26.0455 109.684 26.267 110.195 26.5909C110.712 26.9148 111.136 27.3778 111.465 27.9801C111.795 28.5767 111.96 29.3523 111.96 30.3068V39H109.471V37.2102H109.369C109.204 37.5398 108.957 37.8636 108.627 38.1818C108.298 38.5 107.874 38.7642 107.357 38.9744C106.84 39.1847 106.221 39.2898 105.499 39.2898ZM106.053 37.2443C106.758 37.2443 107.36 37.1051 107.86 36.8267C108.366 36.5483 108.749 36.1847 109.011 35.7358C109.278 35.2812 109.411 34.7955 109.411 34.2784V32.5909C109.32 32.6818 109.144 32.767 108.883 32.8466C108.627 32.9205 108.335 32.9858 108.005 33.0426C107.675 33.0937 107.354 33.142 107.042 33.1875C106.729 33.2273 106.468 33.2614 106.258 33.2898C105.763 33.3523 105.312 33.4574 104.903 33.6051C104.499 33.7528 104.175 33.9659 103.931 34.2443C103.692 34.517 103.573 34.8807 103.573 35.3352C103.573 35.9659 103.806 36.4432 104.272 36.767C104.738 37.0852 105.332 37.2443 106.053 37.2443ZM115.354 39V25.9091H117.817V27.9886H117.953C118.192 27.2841 118.612 26.7301 119.214 26.3267C119.822 25.9176 120.51 25.7131 121.277 25.7131C121.436 25.7131 121.624 25.7187 121.839 25.7301C122.061 25.7415 122.234 25.7557 122.359 25.7727V28.2102C122.257 28.1818 122.075 28.1506 121.814 28.1165C121.553 28.0767 121.291 28.0568 121.03 28.0568C120.428 28.0568 119.891 28.1847 119.419 28.4403C118.953 28.6903 118.584 29.0398 118.311 29.4886C118.038 29.9318 117.902 30.4375 117.902 31.0057V39H115.354ZM124.565 39V25.9091H127.113V39H124.565ZM125.852 23.8892C125.408 23.8892 125.028 23.7415 124.71 23.446C124.397 23.1449 124.241 22.7869 124.241 22.3722C124.241 21.9517 124.397 21.5937 124.71 21.2983C125.028 20.9972 125.408 20.8466 125.852 20.8466C126.295 20.8466 126.673 20.9972 126.985 21.2983C127.303 21.5937 127.462 21.9517 127.462 22.3722C127.462 22.7869 127.303 23.1449 126.985 23.446C126.673 23.7415 126.295 23.8892 125.852 23.8892ZM136.771 25.9091V27.9545H129.374V25.9091H136.771ZM131.402 39V24.392C131.402 23.5739 131.581 22.8949 131.939 22.3551C132.297 21.8097 132.771 21.4034 133.362 21.1364C133.953 20.8636 134.595 20.7273 135.288 20.7273C135.8 20.7273 136.237 20.7699 136.601 20.8551C136.964 20.9347 137.234 21.0085 137.411 21.0767L136.814 23.1392C136.695 23.1051 136.541 23.0653 136.354 23.0199C136.166 22.9687 135.939 22.9432 135.672 22.9432C135.053 22.9432 134.609 23.0966 134.342 23.4034C134.081 23.7102 133.95 24.1534 133.95 24.733V39H131.402ZM141.011 43.9091C140.631 43.9091 140.284 43.8778 139.972 43.8153C139.659 43.7585 139.426 43.696 139.273 43.6278L139.886 41.5398C140.352 41.6648 140.767 41.7188 141.131 41.7017C141.494 41.6847 141.815 41.5483 142.094 41.2926C142.378 41.0369 142.628 40.6193 142.844 40.0398L143.159 39.1705L138.369 25.9091H141.097L144.412 36.0682H144.548L147.864 25.9091H150.599L145.205 40.7472C144.955 41.429 144.636 42.0057 144.25 42.4773C143.864 42.9545 143.403 43.3125 142.869 43.5511C142.335 43.7898 141.716 43.9091 141.011 43.9091Z" fill="url(#paint2_linear_456_309)"/>
<defs>
<linearGradient id="paint0_linear_456_309" x1="30" y1="17.5" x2="30" y2="40" gradientUnits="userSpaceOnUse">
<stop stop-color="#3B82F6"/>
<stop offset="1" stop-color="#1E3A8A" stop-opacity="0.75"/>
</linearGradient>
<linearGradient id="paint1_linear_456_309" x1="30" y1="5" x2="30" y2="55" gradientUnits="userSpaceOnUse">
<stop stop-color="#3B82F6"/>
<stop offset="1" stop-color="#1E3A8A" stop-opacity="0.75"/>
</linearGradient>
<linearGradient id="paint2_linear_456_309" x1="108.5" y1="20" x2="108.5" y2="41" gradientUnits="userSpaceOnUse">
<stop stop-color="#3B82F6"/>
<stop offset="1" stop-color="#BFDBFE" stop-opacity="0.75"/>
</linearGradient>
</defs>
</svg>
